<svg width="300" height="100" viewBox="0 0 300 100" fill="none" xmlns="http://www.w3.org/2000/svg">
<path d="M104.864 80.696C104.896 80.3867 104.944 80.072 105.008 79.752C105.072 79.4213 105.173 79.1173 105.312 78.84C105.451 78.552 105.637 78.3227 105.872 78.152C106.117 77.9813 106.432 77.896 106.816 77.896C107.061 77.896 107.285 77.9387 107.488 78.024C107.701 78.0987 107.915 78.216 108.128 78.376C108.341 78.5253 108.571 78.7173 108.816 78.952C109.04 79.1547 109.259 79.3413 109.472 79.512C109.685 79.672 109.904 79.752 110.128 79.752C110.331 79.752 110.491 79.6827 110.608 79.544C110.736 79.3947 110.837 79.1813 110.912 78.904C110.997 78.6267 111.061 78.2907 111.104 77.896H112.064C112.032 78.1733 111.979 78.472 111.904 78.792C111.84 79.112 111.739 79.416 111.6 79.704C111.461 79.992 111.269 80.232 111.024 80.424C110.789 80.6053 110.485 80.696 110.112 80.696C109.867 80.696 109.632 80.6533 109.408 80.568C109.195 80.4827 108.987 80.3653 108.784 80.216C108.592 80.056 108.395 79.88 108.192 79.688C108.032 79.528 107.877 79.384 107.728 79.256C107.579 79.128 107.429 79.0267 107.28 78.952C107.141 78.8773 106.987 78.84 106.816 78.84C106.613 78.84 106.443 78.9093 106.304 79.048C106.165 79.1867 106.059 79.3947 105.984 79.672C105.909 79.9387 105.851 80.28 105.808 80.696H104.864ZM118.714 85.16C117.658 85.16 116.767 84.9147 116.042 84.424C115.316 83.9333 114.767 83.2507 114.394 82.376C114.031 81.4907 113.85 80.456 113.85 79.272C113.85 78.12 114.042 77.1067 114.426 76.232C114.82 75.3467 115.396 74.6587 116.154 74.168C116.922 73.6667 117.866 73.416 118.986 73.416C119.711 73.416 120.314 73.496 120.794 73.656C121.274 73.8053 121.631 74.0187 121.866 74.296C122.1 74.5627 122.218 74.8667 122.218 75.208C122.218 75.5493 122.084 75.8213 121.818 76.024C121.551 76.2267 121.22 76.328 120.826 76.328C120.826 75.9973 120.767 75.6773 120.65 75.368C120.532 75.048 120.335 74.7867 120.058 74.584C119.791 74.3707 119.423 74.264 118.954 74.264C118.154 74.264 117.508 74.4613 117.018 74.856C116.527 75.24 116.17 75.8053 115.946 76.552C115.732 77.2987 115.626 78.2053 115.626 79.272C115.626 80.2213 115.738 81.064 115.962 81.8C116.196 82.5253 116.559 83.0907 117.049 83.496C117.54 83.9013 118.175 84.104 118.954 84.104C119.476 84.104 119.919 84.04 120.282 83.912C120.644 83.784 120.948 83.6187 121.194 83.416C121.45 83.2027 121.668 82.9787 121.85 82.744C121.935 82.7973 122.004 82.8773 122.058 82.984C122.122 83.08 122.154 83.208 122.154 83.368C122.154 83.5707 122.084 83.7787 121.946 83.992C121.807 84.1947 121.599 84.3867 121.322 84.568C121.044 84.7387 120.687 84.8827 120.25 85C119.823 85.1067 119.311 85.16 118.714 85.16ZM123.134 85V84.328H123.342C123.576 84.328 123.79 84.3067 123.982 84.264C124.184 84.2107 124.344 84.1093 124.462 83.96C124.59 83.8 124.654 83.5653 124.654 83.256V78.184C124.654 77.864 124.59 77.6293 124.462 77.48C124.344 77.32 124.184 77.2187 123.982 77.176C123.79 77.1227 123.576 77.096 123.342 77.096H123.294V76.424H126.158V83.176C126.158 83.5067 126.216 83.7573 126.334 83.928C126.451 84.088 126.611 84.1947 126.814 84.248C127.016 84.3013 127.235 84.328 127.47 84.328H127.678V85H123.134ZM125.342 74.824C125.086 74.824 124.867 74.7493 124.686 74.6C124.515 74.4507 124.43 74.1947 124.43 73.832C124.43 73.4587 124.515 73.2027 124.686 73.064C124.867 72.9147 125.086 72.84 125.342 72.84C125.587 72.84 125.8 72.9147 125.982 73.064C126.163 73.2027 126.254 73.4587 126.254 73.832C126.254 74.1947 126.163 74.4507 125.982 74.6C125.8 74.7493 125.587 74.824 125.342 74.824ZM131.587 88.84C130.477 88.84 129.645 88.632 129.091 88.216C128.536 87.8107 128.259 87.24 128.259 86.504C128.259 86.088 128.349 85.736 128.531 85.448C128.723 85.1707 128.968 84.952 129.267 84.792C129.576 84.632 129.907 84.52 130.259 84.456C130.045 84.36 129.843 84.2053 129.651 83.992C129.469 83.768 129.379 83.4853 129.379 83.144C129.379 82.824 129.459 82.5467 129.619 82.312C129.789 82.0773 130.056 81.8533 130.419 81.64C129.96 81.448 129.603 81.1333 129.347 80.696C129.101 80.248 128.979 79.7573 128.979 79.224C128.979 78.3067 129.229 77.5867 129.731 77.064C130.232 76.5307 130.984 76.264 131.987 76.264C132.371 76.264 132.733 76.3173 133.075 76.424C133.416 76.5307 133.661 76.6533 133.811 76.792C133.917 76.6747 134.045 76.552 134.195 76.424C134.344 76.2853 134.515 76.168 134.707 76.072C134.909 75.976 135.128 75.928 135.363 75.928C135.683 75.928 135.917 76.0133 136.067 76.184C136.227 76.344 136.307 76.536 136.307 76.76C136.307 76.984 136.237 77.1813 136.099 77.352C135.971 77.512 135.757 77.592 135.459 77.592C135.459 77.4747 135.421 77.3573 135.347 77.24C135.283 77.112 135.144 77.048 134.931 77.048C134.792 77.048 134.669 77.064 134.563 77.096C134.456 77.128 134.349 77.176 134.243 77.24C134.424 77.464 134.573 77.7307 134.691 78.04C134.808 78.3387 134.867 78.7173 134.867 79.176C134.867 79.9653 134.627 80.6213 134.147 81.144C133.677 81.6667 132.957 81.928 131.987 81.928C131.859 81.928 131.709 81.9227 131.539 81.912C131.379 81.8907 131.245 81.8693 131.139 81.848C130.936 81.9547 130.76 82.088 130.611 82.248C130.461 82.408 130.387 82.6107 130.387 82.856C130.387 83.048 130.445 83.1973 130.563 83.304C130.691 83.4107 130.963 83.464 131.379 83.464H133.187C133.827 83.464 134.339 83.5707 134.723 83.784C135.107 83.9867 135.384 84.2693 135.555 84.632C135.736 84.984 135.827 85.3893 135.827 85.848C135.827 86.7653 135.48 87.4907 134.787 88.024C134.104 88.568 133.037 88.84 131.587 88.84ZM131.619 88.056C132.387 88.056 132.979 87.9707 133.395 87.8C133.811 87.64 134.099 87.4107 134.259 87.112C134.429 86.824 134.515 86.4933 134.515 86.12C134.515 85.6293 134.376 85.2987 134.099 85.128C133.821 84.968 133.416 84.888 132.883 84.888H131.315C131.016 84.888 130.733 84.9253 130.467 85C130.2 85.0853 129.981 85.2347 129.811 85.448C129.64 85.6613 129.555 85.9813 129.555 86.408C129.555 86.7173 129.613 86.9947 129.731 87.24C129.848 87.496 130.056 87.6933 130.355 87.832C130.653 87.9813 131.075 88.056 131.619 88.056ZM131.939 81.16C132.291 81.16 132.568 81.0907 132.771 80.952C132.984 80.8133 133.133 80.5947 133.219 80.296C133.315 79.9973 133.363 79.6187 133.363 79.16C133.363 78.68 133.315 78.2853 133.219 77.976C133.123 77.656 132.968 77.4213 132.755 77.272C132.552 77.1227 132.275 77.048 131.923 77.048C131.581 77.048 131.304 77.128 131.091 77.288C130.877 77.4373 130.723 77.672 130.627 77.992C130.531 78.3013 130.483 78.696 130.483 79.176C130.483 79.624 130.531 79.9973 130.627 80.296C130.733 80.584 130.893 80.8027 131.107 80.952C131.32 81.0907 131.597 81.16 131.939 81.16ZM139.78 85.16C139.311 85.16 138.884 85.0693 138.5 84.888C138.127 84.696 137.833 84.4133 137.62 84.04C137.407 83.656 137.3 83.176 137.3 82.6C137.3 81.7467 137.599 81.1173 138.196 80.712C138.804 80.3067 139.721 80.0827 140.948 80.04L142.276 79.992V79.032C142.276 78.648 142.244 78.312 142.18 78.024C142.116 77.7253 141.977 77.4907 141.764 77.32C141.551 77.1493 141.225 77.064 140.788 77.064C140.383 77.064 140.073 77.1387 139.86 77.288C139.647 77.4373 139.503 77.6453 139.428 77.912C139.364 78.168 139.332 78.4667 139.332 78.808C138.884 78.808 138.543 78.7333 138.308 78.584C138.084 78.424 137.972 78.1627 137.972 77.8C137.972 77.4267 138.1 77.128 138.356 76.904C138.623 76.68 138.975 76.52 139.412 76.424C139.849 76.3173 140.329 76.264 140.852 76.264C141.833 76.264 142.564 76.472 143.044 76.888C143.535 77.304 143.78 78.0187 143.78 79.032V83.176C143.78 83.4747 143.812 83.7093 143.876 83.88C143.94 84.04 144.047 84.1573 144.196 84.232C144.345 84.296 144.537 84.328 144.772 84.328H144.82V85H142.66L142.404 83.624H142.276C142.052 83.9227 141.833 84.1893 141.62 84.424C141.407 84.648 141.156 84.8293 140.868 84.968C140.591 85.096 140.228 85.16 139.78 85.16ZM140.148 84.168C140.585 84.168 140.959 84.0773 141.268 83.896C141.588 83.7147 141.833 83.4587 142.004 83.128C142.185 82.7867 142.276 82.392 142.276 81.944V80.648L141.252 80.696C140.644 80.7173 140.164 80.808 139.812 80.968C139.471 81.128 139.225 81.352 139.076 81.64C138.927 81.9173 138.852 82.264 138.852 82.68C138.852 83.0107 138.9 83.288 138.996 83.512C139.092 83.7253 139.236 83.8907 139.428 84.008C139.62 84.1147 139.86 84.168 140.148 84.168ZM146.044 85V84.328H146.092C146.337 84.328 146.556 84.3013 146.748 84.248C146.95 84.1947 147.11 84.088 147.228 83.928C147.345 83.7573 147.404 83.5067 147.404 83.176V78.184C147.404 77.864 147.34 77.6293 147.212 77.48C147.094 77.32 146.934 77.2187 146.732 77.176C146.54 77.1227 146.326 77.096 146.092 77.096H146.044V76.424H148.508L148.812 78.008H148.892C149.03 77.688 149.18 77.3947 149.34 77.128C149.5 76.8613 149.713 76.6533 149.98 76.504C150.246 76.344 150.614 76.264 151.084 76.264C151.67 76.264 152.102 76.3653 152.38 76.568C152.668 76.7707 152.812 77.0587 152.812 77.432C152.812 77.7627 152.694 78.0347 152.46 78.248C152.236 78.4613 151.857 78.568 151.324 78.568C151.324 78.2693 151.297 78.0293 151.244 77.848C151.19 77.6667 151.1 77.5333 150.972 77.448C150.854 77.3627 150.689 77.32 150.476 77.32C150.177 77.32 149.926 77.4373 149.724 77.672C149.521 77.9067 149.361 78.2053 149.244 78.568C149.126 78.9307 149.041 79.3093 148.988 79.704C148.934 80.088 148.908 80.4347 148.908 80.744V83.256C148.908 83.5653 148.966 83.8 149.084 83.96C149.212 84.1093 149.372 84.2107 149.564 84.264C149.766 84.3067 149.985 84.328 150.22 84.328H150.668V85H146.044ZM157.811 85V84.328H158.019C158.264 84.328 158.483 84.3013 158.675 84.248C158.878 84.1947 159.038 84.088 159.155 83.928C159.272 83.7573 159.331 83.5067 159.331 83.176V75.336C159.331 75.016 159.267 74.7813 159.139 74.632C159.022 74.472 158.862 74.3707 158.659 74.328C158.467 74.2747 158.254 74.248 158.019 74.248H157.811V73.576H162.099C163.486 73.576 164.515 73.8107 165.187 74.28C165.87 74.7387 166.211 75.4587 166.211 76.44C166.211 76.9093 166.126 77.3093 165.955 77.64C165.784 77.9707 165.55 78.2427 165.251 78.456C164.952 78.6587 164.611 78.824 164.227 78.952V79.016C164.718 79.1013 165.144 79.2667 165.507 79.512C165.88 79.7467 166.168 80.0667 166.371 80.472C166.584 80.8667 166.691 81.3467 166.691 81.912C166.691 82.9467 166.35 83.72 165.667 84.232C164.995 84.744 163.966 85 162.579 85H157.811ZM162.499 84.2C163.406 84.2 164.046 84.024 164.419 83.672C164.792 83.32 164.979 82.7173 164.979 81.864C164.979 81.3093 164.904 80.8507 164.755 80.488C164.606 80.1253 164.355 79.8587 164.003 79.688C163.651 79.5067 163.16 79.416 162.531 79.416H160.947V84.2H162.499ZM162.051 78.616C162.68 78.616 163.171 78.5413 163.523 78.392C163.875 78.2427 164.126 78.008 164.275 77.688C164.424 77.368 164.499 76.952 164.499 76.44C164.499 75.6507 164.312 75.112 163.939 74.824C163.566 74.5253 162.926 74.376 162.019 74.376H160.947V78.616H162.051ZM170.952 85.16C170.483 85.16 170.056 85.0693 169.672 84.888C169.299 84.696 169.005 84.4133 168.792 84.04C168.579 83.656 168.472 83.176 168.472 82.6C168.472 81.7467 168.771 81.1173 169.368 80.712C169.976 80.3067 170.893 80.0827 172.12 80.04L173.448 79.992V79.032C173.448 78.648 173.416 78.312 173.352 78.024C173.288 77.7253 173.149 77.4907 172.936 77.32C172.723 77.1493 172.397 77.064 171.96 77.064C171.555 77.064 171.245 77.1387 171.032 77.288C170.819 77.4373 170.675 77.6453 170.6 77.912C170.536 78.168 170.504 78.4667 170.504 78.808C170.056 78.808 169.715 78.7333 169.48 78.584C169.256 78.424 169.144 78.1627 169.144 77.8C169.144 77.4267 169.272 77.128 169.528 76.904C169.795 76.68 170.147 76.52 170.584 76.424C171.021 76.3173 171.501 76.264 172.024 76.264C173.005 76.264 173.736 76.472 174.216 76.888C174.707 77.304 174.952 78.0187 174.952 79.032V83.176C174.952 83.4747 174.984 83.7093 175.048 83.88C175.112 84.04 175.219 84.1573 175.368 84.232C175.517 84.296 175.709 84.328 175.944 84.328H175.992V85H173.832L173.576 83.624H173.448C173.224 83.9227 173.005 84.1893 172.792 84.424C172.579 84.648 172.328 84.8293 172.04 84.968C171.763 85.096 171.4 85.16 170.952 85.16ZM171.32 84.168C171.757 84.168 172.131 84.0773 172.44 83.896C172.76 83.7147 173.005 83.4587 173.176 83.128C173.357 82.7867 173.448 82.392 173.448 81.944V80.648L172.424 80.696C171.816 80.7173 171.336 80.808 170.984 80.968C170.643 81.128 170.397 81.352 170.248 81.64C170.099 81.9173 170.024 82.264 170.024 82.68C170.024 83.0107 170.072 83.288 170.168 83.512C170.264 83.7253 170.408 83.8907 170.6 84.008C170.792 84.1147 171.032 84.168 171.32 84.168ZM177.215 85V84.328H177.264C177.509 84.328 177.728 84.3013 177.92 84.248C178.122 84.1947 178.282 84.088 178.4 83.928C178.517 83.7573 178.576 83.5067 178.576 83.176V78.184C178.576 77.864 178.512 77.6293 178.384 77.48C178.266 77.32 178.106 77.2187 177.904 77.176C177.712 77.1227 177.498 77.096 177.264 77.096H177.215V76.424H179.68L179.984 78.008H180.064C180.202 77.688 180.352 77.3947 180.512 77.128C180.672 76.8613 180.885 76.6533 181.152 76.504C181.418 76.344 181.786 76.264 182.256 76.264C182.842 76.264 183.274 76.3653 183.552 76.568C183.84 76.7707 183.984 77.0587 183.984 77.432C183.984 77.7627 183.866 78.0347 183.632 78.248C183.408 78.4613 183.029 78.568 182.496 78.568C182.496 78.2693 182.469 78.0293 182.416 77.848C182.362 77.6667 182.272 77.5333 182.144 77.448C182.026 77.3627 181.861 77.32 181.648 77.32C181.349 77.32 181.098 77.4373 180.896 77.672C180.693 77.9067 180.533 78.2053 180.416 78.568C180.298 78.9307 180.213 79.3093 180.16 79.704C180.106 80.088 180.08 80.4347 180.08 80.744V83.256C180.08 83.5653 180.138 83.8 180.256 83.96C180.384 84.1093 180.544 84.2107 180.736 84.264C180.938 84.3067 181.157 84.328 181.391 84.328H181.84V85H177.215ZM185.083 80.696C185.115 80.3867 185.163 80.072 185.227 79.752C185.291 79.4213 185.392 79.1173 185.531 78.84C185.669 78.552 185.856 78.3227 186.091 78.152C186.336 77.9813 186.651 77.896 187.035 77.896C187.28 77.896 187.504 77.9387 187.707 78.024C187.92 78.0987 188.133 78.216 188.347 78.376C188.56 78.5253 188.789 78.7173 189.035 78.952C189.259 79.1547 189.477 79.3413 189.691 79.512C189.904 79.672 190.123 79.752 190.347 79.752C190.549 79.752 190.709 79.6827 190.827 79.544C190.955 79.3947 191.056 79.1813 191.131 78.904C191.216 78.6267 191.28 78.2907 191.323 77.896H192.283C192.251 78.1733 192.197 78.472 192.123 78.792C192.059 79.112 191.957 79.416 191.819 79.704C191.68 79.992 191.488 80.232 191.243 80.424C191.008 80.6053 190.704 80.696 190.331 80.696C190.085 80.696 189.851 80.6533 189.627 80.568C189.413 80.4827 189.205 80.3653 189.003 80.216C188.811 80.056 188.613 79.88 188.411 79.688C188.251 79.528 188.096 79.384 187.947 79.256C187.797 79.128 187.648 79.0267 187.499 78.952C187.36 78.8773 187.205 78.84 187.035 78.84C186.832 78.84 186.661 78.9093 186.523 79.048C186.384 79.1867 186.277 79.3947 186.203 79.672C186.128 79.9387 186.069 80.28 186.027 80.696H185.083Z" fill="#C5A059"/>
<path d="M48.0918 37.008C48.3905 37.008 48.7078 37.0267 49.0438 37.064C49.3985 37.1013 49.7345 37.1573 50.0518 37.232C50.3878 37.288 50.6865 37.3533 50.9478 37.428C51.2278 37.484 51.4425 37.5493 51.5918 37.624V40.732H51.3398C51.3398 39.836 51.0318 39.136 50.4158 38.632C49.7998 38.1093 49.0532 37.848 48.1758 37.848C47.1492 37.848 46.3185 38.1747 45.6838 38.828C45.0492 39.4627 44.7318 40.2093 44.7318 41.068C44.7318 41.4227 44.8065 41.8427 44.9558 42.328C45.1238 42.7947 45.4225 43.2333 45.8518 43.644L51.3678 48.74C51.9278 49.2627 52.3012 49.8227 52.4878 50.42C52.6745 51.0173 52.7678 51.596 52.7678 52.156C52.7678 53.7053 52.2918 54.9653 51.3398 55.936C50.4065 56.9067 49.1372 57.392 47.5318 57.392C47.0838 57.392 46.5518 57.3453 45.9358 57.252C45.3385 57.1587 44.7505 57 44.1718 56.776C43.6118 56.5333 43.1452 56.2253 42.7718 55.852C42.7158 55.5533 42.6878 55.18 42.6878 54.732C42.6878 54.284 42.7252 53.8173 42.7998 53.332C42.8745 52.828 42.9772 52.3707 43.1078 51.96H43.3598C43.2665 52.912 43.3878 53.7427 43.7238 54.452C44.0598 55.1613 44.5452 55.7027 45.1798 56.076C45.8332 56.4307 46.5705 56.5893 47.3918 56.552C48.4185 56.496 49.2958 56.1413 50.0238 55.488C50.7705 54.816 51.1438 53.92 51.1438 52.8C51.1438 52.2587 51.0505 51.7733 50.8638 51.344C50.6772 50.896 50.4065 50.5133 50.0518 50.196L44.6758 45.212C44.1158 44.6893 43.7238 44.12 43.4998 43.504C43.2758 42.8693 43.1638 42.2813 43.1638 41.74C43.1638 40.956 43.3505 40.2 43.7238 39.472C44.0972 38.744 44.6478 38.156 45.3758 37.708C46.1225 37.2413 47.0278 37.008 48.0918 37.008ZM51.5918 37.288V37.876H49.4638V37.288H51.5918ZM75.1009 37.008L75.3249 38.884L68.2969 54.536C68.2969 54.536 68.2222 54.6947 68.0729 55.012C67.9422 55.3293 67.8022 55.712 67.6529 56.16C67.5036 56.5893 67.4009 57 67.3449 57.392H67.0649L66.6729 55.628L75.1009 37.008ZM57.8809 54.956V57H54.7729V56.72C54.7916 56.72 54.8662 56.72 54.9969 56.72C55.1462 56.72 55.2209 56.72 55.2209 56.72C55.7249 56.72 56.1729 56.5707 56.5649 56.272C56.9569 55.9547 57.1902 55.516 57.2649 54.956H57.8809ZM58.6929 55.404C58.6929 55.4227 58.6929 55.4413 58.6929 55.46C58.6929 55.4787 58.6929 55.5067 58.6929 55.544C58.6929 55.8427 58.7956 56.1227 59.0009 56.384C59.2249 56.6267 59.4862 56.748 59.7849 56.748H60.2049V57H58.4969V55.404H58.6929ZM59.3649 37.008H59.6449L60.2049 38.66L58.5529 57H57.0409L59.3649 37.008ZM59.6449 37.008L67.7089 54.452L67.0649 57.392L59.1129 40.144L59.6449 37.008ZM75.3529 37.008L77.7609 57H75.5769L74.0369 40.032L75.1009 37.008H75.3529ZM76.9209 54.956H77.5089C77.6022 55.516 77.8449 55.9547 78.2369 56.272C78.6289 56.5707 79.0676 56.72 79.5529 56.72C79.5529 56.72 79.6276 56.72 79.7769 56.72C79.9262 56.72 80.0009 56.72 80.0009 56.72V57H76.9209V54.956ZM75.4369 55.404H75.6329V57H73.9249V56.748H74.3449C74.6622 56.748 74.9236 56.6267 75.1289 56.384C75.3342 56.1227 75.4369 55.8427 75.4369 55.544C75.4369 55.5067 75.4369 55.4787 75.4369 55.46C75.4369 55.4413 75.4369 55.4227 75.4369 55.404ZM92.0133 37.008C94.0107 37.008 95.7653 37.4373 97.2773 38.296C98.7893 39.136 99.9653 40.3213 100.805 41.852C101.664 43.3827 102.093 45.1653 102.093 47.2C102.093 49.2347 101.664 51.0173 100.805 52.548C99.9653 54.0787 98.7893 55.2733 97.2773 56.132C95.7653 56.972 94.0107 57.392 92.0133 57.392C90.0347 57.392 88.2893 56.972 86.7773 56.132C85.2653 55.2733 84.08 54.0787 83.2213 52.548C82.3813 51.0173 81.9613 49.2347 81.9613 47.2C81.9613 45.1653 82.3813 43.3827 83.2213 41.852C84.08 40.3213 85.2653 39.136 86.7773 38.296C88.2893 37.4373 90.0347 37.008 92.0133 37.008ZM92.0133 56.552C93.6 56.552 94.9813 56.16 96.1573 55.376C97.352 54.592 98.276 53.5 98.9293 52.1C99.6013 50.7 99.9373 49.0667 99.9373 47.2C99.9373 45.3333 99.6013 43.7 98.9293 42.3C98.276 40.9 97.352 39.808 96.1573 39.024C94.9813 38.24 93.6 37.848 92.0133 37.848C90.4453 37.848 89.064 38.24 87.8693 39.024C86.6933 39.808 85.7693 40.9 85.0973 42.3C84.444 43.7 84.1173 45.3333 84.1173 47.2C84.1173 49.0667 84.444 50.7 85.0973 52.1C85.7693 53.5 86.6933 54.592 87.8693 55.376C89.064 56.16 90.4453 56.552 92.0133 56.552ZM111.007 46.22L118.959 55.572C119.351 55.9453 119.743 56.2253 120.135 56.412C120.546 56.5987 121.041 56.7013 121.619 56.72V57H120.415C120.229 57 119.958 56.9907 119.603 56.972C119.267 56.9347 118.894 56.8693 118.483 56.776C118.091 56.664 117.69 56.5053 117.279 56.3C116.887 56.076 116.533 55.7773 116.215 55.404C116.215 55.404 116.047 55.208 115.711 54.816C115.394 54.424 114.974 53.92 114.451 53.304C113.947 52.688 113.406 52.0347 112.827 51.344C112.267 50.6347 111.726 49.972 111.203 49.356C110.699 48.74 110.279 48.236 109.943 47.844C109.626 47.452 109.467 47.256 109.467 47.256L111.007 46.22ZM119.099 37.596L110.727 47.256H109.467L117.167 37.596H119.099ZM121.031 37.4V37.652H120.919C120.303 37.652 119.725 37.7733 119.183 38.016C118.661 38.2587 118.213 38.5947 117.839 39.024L116.075 38.968C116.318 38.6507 116.355 38.352 116.187 38.072C116.038 37.792 115.777 37.652 115.403 37.652H115.123V37.4H120.919H121.031ZM108.571 37.4V57H106.751V37.4H108.571ZM106.835 54.956V57H104.595V56.72C104.595 56.72 104.651 56.72 104.763 56.72C104.894 56.72 104.959 56.72 104.959 56.72C105.445 56.72 105.855 56.552 106.191 56.216C106.546 55.8613 106.733 55.4413 106.751 54.956H106.835ZM106.835 39.444H106.751C106.733 38.9587 106.546 38.548 106.191 38.212C105.855 37.8573 105.445 37.68 104.959 37.68C104.959 37.68 104.894 37.68 104.763 37.68C104.651 37.68 104.595 37.68 104.595 37.68V37.4H106.835V39.444ZM108.487 54.956H108.571C108.59 55.4413 108.767 55.8613 109.103 56.216C109.458 56.552 109.878 56.72 110.363 56.72C110.363 56.72 110.419 56.72 110.531 56.72C110.643 56.72 110.709 56.72 110.727 56.72V57H108.487V54.956ZM108.487 39.444V37.4H110.727V37.68C110.709 37.68 110.643 37.68 110.531 37.68C110.419 37.68 110.363 37.68 110.363 37.68C109.878 37.68 109.458 37.8573 109.103 38.212C108.767 38.548 108.59 38.9587 108.571 39.444H108.487ZM126.974 37.4V57H125.154V37.4H126.974ZM134.534 56.132V57H126.89V56.132H134.534ZM133.33 46.92V47.76H126.89V46.92H133.33ZM134.534 37.4V38.268H126.89V37.4H134.534ZM136.242 52.464L134.618 57H129.97L130.978 56.132C131.967 56.132 132.77 55.9827 133.386 55.684C134.02 55.3667 134.534 54.928 134.926 54.368C135.318 53.808 135.663 53.1733 135.962 52.464H136.242ZM133.33 47.704V49.552H133.05V49.132C133.05 48.7587 132.919 48.4413 132.658 48.18C132.396 47.9 132.079 47.76 131.706 47.76V47.704H133.33ZM133.33 45.128V46.976H131.706V46.92C132.079 46.9013 132.396 46.7613 132.658 46.5C132.919 46.22 133.05 45.8933 133.05 45.52V45.128H133.33ZM134.534 38.184V40.424H134.254V39.92C134.254 39.472 134.095 39.0893 133.778 38.772C133.46 38.436 133.068 38.2587 132.602 38.24V38.184H134.534ZM134.534 36.896V37.708L131.118 37.4C131.528 37.4 131.958 37.372 132.406 37.316C132.872 37.26 133.302 37.1947 133.694 37.12C134.086 37.0453 134.366 36.9707 134.534 36.896ZM125.238 54.956V57H122.998V56.72C122.998 56.72 123.054 56.72 123.166 56.72C123.296 56.72 123.362 56.72 123.362 56.72C123.847 56.72 124.258 56.552 124.594 56.216C124.948 55.8613 125.135 55.4413 125.154 54.956H125.238ZM125.238 39.444H125.154C125.154 38.9587 124.976 38.548 124.622 38.212C124.267 37.8573 123.847 37.68 123.362 37.68C123.362 37.68 123.306 37.68 123.194 37.68C123.082 37.68 123.026 37.68 123.026 37.68L122.998 37.4H125.238V39.444ZM153.27 37.008C153.905 37.008 154.521 37.092 155.118 37.26C155.715 37.428 156.266 37.6613 156.77 37.96C157.274 38.24 157.694 38.5853 158.03 38.996L157.526 42.16H157.246C157.246 41.264 157.078 40.4987 156.742 39.864C156.406 39.2107 155.939 38.716 155.342 38.38C154.763 38.0253 154.073 37.848 153.27 37.848C152.206 37.848 151.319 38.2213 150.61 38.968C149.919 39.7147 149.574 40.6573 149.574 41.796C149.574 42.972 149.957 44.064 150.722 45.072C151.487 46.08 152.589 47.228 154.026 48.516C154.437 48.8707 154.885 49.2813 155.37 49.748C155.874 50.196 156.443 50.7 157.078 51.26C157.731 51.82 158.459 52.436 159.262 53.108C159.859 53.5933 160.466 54.1067 161.082 54.648C161.717 55.1893 162.361 55.656 163.014 56.048C163.686 56.44 164.377 56.664 165.086 56.72V57C164.731 57 164.218 56.9907 163.546 56.972C162.893 56.9533 162.165 56.8227 161.362 56.58C160.559 56.3373 159.757 55.8893 158.954 55.236C158.245 54.6573 157.591 54.1253 156.994 53.64C156.415 53.136 155.874 52.6787 155.37 52.268C154.885 51.8387 154.427 51.4373 153.998 51.064C153.569 50.672 153.149 50.2893 152.738 49.916C151.655 48.908 150.731 48.0027 149.966 47.2C149.219 46.3787 148.641 45.548 148.23 44.708C147.838 43.8493 147.642 42.8787 147.642 41.796C147.642 41.1053 147.773 40.4707 148.034 39.892C148.295 39.3133 148.669 38.8093 149.154 38.38C149.658 37.9507 150.255 37.6147 150.946 37.372C151.637 37.1293 152.411 37.008 153.27 37.008ZM160.998 47.788C161.203 48.8147 161.259 49.7947 161.166 50.728C161.073 51.6613 160.839 52.5293 160.466 53.332C160.111 54.116 159.617 54.8067 158.982 55.404C158.366 56.0013 157.629 56.468 156.77 56.804C155.911 57.1213 154.95 57.28 153.886 57.28C152.803 57.28 151.805 57.1867 150.89 57C149.994 56.8133 149.201 56.5427 148.51 56.188C147.819 55.8147 147.231 55.3667 146.746 54.844C146.279 54.3027 145.925 53.696 145.682 53.024C145.439 52.3333 145.318 51.568 145.318 50.728C145.318 50.1867 145.374 49.692 145.486 49.244C145.617 48.7773 145.794 48.348 146.018 47.956C146.242 47.564 146.503 47.2187 146.802 46.92C147.119 46.6027 147.465 46.3133 147.838 46.052C148.211 45.7907 148.613 45.5667 149.042 45.38L149.434 45.996C149.061 46.2947 148.743 46.6307 148.482 47.004C148.221 47.3587 148.006 47.7413 147.838 48.152C147.67 48.544 147.549 48.964 147.474 49.412C147.399 49.8413 147.362 50.28 147.362 50.728C147.362 51.568 147.502 52.3427 147.782 53.052C148.081 53.7427 148.501 54.34 149.042 54.844C149.602 55.348 150.283 55.74 151.086 56.02C151.907 56.3 152.841 56.44 153.886 56.44C154.838 56.44 155.678 56.2533 156.406 55.88C157.153 55.488 157.769 54.984 158.254 54.368C158.758 53.7333 159.131 53.0333 159.374 52.268C159.617 51.5027 159.719 50.7373 159.682 49.972C159.645 49.188 159.458 48.46 159.122 47.788C158.935 47.4147 158.693 47.1067 158.394 46.864C158.114 46.6213 157.75 46.5 157.302 46.5H156.882V46.22H162.454V46.5H162.034C161.623 46.5 161.325 46.6213 161.138 46.864C160.97 47.1067 160.923 47.4147 160.998 47.788ZM179.631 37.008L187.919 56.832H185.539L179.071 39.668L179.631 37.008ZM173.611 54.956C173.481 55.3293 173.462 55.6467 173.555 55.908C173.649 56.1693 173.798 56.3747 174.003 56.524C174.227 56.6547 174.451 56.72 174.675 56.72H174.927V57H169.299V56.72C169.299 56.72 169.346 56.72 169.439 56.72C169.514 56.72 169.551 56.72 169.551 56.72C169.981 56.72 170.419 56.5893 170.867 56.328C171.334 56.048 171.717 55.5907 172.015 54.956H173.611ZM179.631 37.008L179.883 38.968L172.855 56.916H171.175L178.343 39.892C178.343 39.892 178.39 39.78 178.483 39.556C178.595 39.3133 178.717 39.024 178.847 38.688C178.997 38.352 179.118 38.0253 179.211 37.708C179.323 37.3907 179.379 37.1573 179.379 37.008H179.631ZM183.579 49.356V50.196H174.815V49.356H183.579ZM184.839 54.956H187.135C187.415 55.5907 187.789 56.048 188.255 56.328C188.722 56.5893 189.17 56.72 189.599 56.72C189.599 56.72 189.637 56.72 189.711 56.72C189.786 56.72 189.823 56.72 189.823 56.72V57H183.523V56.72H183.775C184.13 56.72 184.447 56.5707 184.727 56.272C185.007 55.9547 185.045 55.516 184.839 54.956ZM210.261 37.008L210.485 38.884L203.457 54.536C203.457 54.536 203.382 54.6947 203.233 55.012C203.102 55.3293 202.962 55.712 202.813 56.16C202.664 56.5893 202.561 57 202.505 57.392H202.225L201.833 55.628L210.261 37.008ZM193.041 54.956V57H189.933V56.72C189.952 56.72 190.026 56.72 190.157 56.72C190.306 56.72 190.381 56.72 190.381 56.72C190.885 56.72 191.333 56.5707 191.725 56.272C192.117 55.9547 192.35 55.516 192.425 54.956H193.041ZM193.853 55.404C193.853 55.4227 193.853 55.4413 193.853 55.46C193.853 55.4787 193.853 55.5067 193.853 55.544C193.853 55.8427 193.956 56.1227 194.161 56.384C194.385 56.6267 194.646 56.748 194.945 56.748H195.365V57H193.657V55.404H193.853ZM194.525 37.008H194.805L195.365 38.66L193.713 57H192.201L194.525 37.008ZM194.805 37.008L202.869 54.452L202.225 57.392L194.273 40.144L194.805 37.008ZM210.513 37.008L212.921 57H210.737L209.197 40.032L210.261 37.008H210.513ZM212.081 54.956H212.669C212.762 55.516 213.005 55.9547 213.397 56.272C213.789 56.5707 214.228 56.72 214.713 56.72C214.713 56.72 214.788 56.72 214.937 56.72C215.086 56.72 215.161 56.72 215.161 56.72V57H212.081V54.956ZM210.597 55.404H210.793V57H209.085V56.748H209.505C209.822 56.748 210.084 56.6267 210.289 56.384C210.494 56.1227 210.597 55.8427 210.597 55.544C210.597 55.5067 210.597 55.4787 210.597 55.46C210.597 55.4413 210.597 55.4227 210.597 55.404ZM219.856 37.4H222.824C224.13 37.4 225.232 37.596 226.128 37.988C227.042 38.38 227.733 38.9307 228.2 39.64C228.666 40.3307 228.9 41.1427 228.9 42.076C228.9 42.86 228.75 43.5507 228.452 44.148C228.153 44.7267 227.77 45.2027 227.304 45.576C226.837 45.9307 226.342 46.1827 225.82 46.332C226.809 46.4813 227.658 46.808 228.368 47.312C229.096 47.816 229.646 48.4507 230.02 49.216C230.412 49.9627 230.608 50.8027 230.608 51.736C230.608 52.7813 230.356 53.7053 229.852 54.508C229.348 55.292 228.601 55.908 227.612 56.356C226.641 56.7853 225.465 57 224.084 57H220.976C220.976 57 220.976 56.916 220.976 56.748C220.994 56.58 221.004 56.412 221.004 56.244C221.004 56.076 221.004 55.992 221.004 55.992H223.972C224.942 55.992 225.764 55.824 226.436 55.488C227.108 55.1333 227.621 54.62 227.976 53.948C228.33 53.276 228.508 52.4733 228.508 51.54C228.508 50.4947 228.302 49.6453 227.892 48.992C227.5 48.3387 226.986 47.844 226.352 47.508C225.717 47.172 225.026 46.948 224.28 46.836C223.552 46.7053 222.852 46.64 222.18 46.64V46.388C222.609 46.388 223.085 46.3413 223.608 46.248C224.13 46.1547 224.634 45.968 225.12 45.688C225.605 45.408 226.006 44.9973 226.324 44.456C226.641 43.896 226.8 43.168 226.8 42.272C226.8 41.432 226.641 40.7133 226.324 40.116C226.025 39.5187 225.568 39.0707 224.952 38.772C224.354 38.4547 223.608 38.296 222.712 38.296H220.136C220.136 38.2773 220.108 38.2027 220.052 38.072C220.014 37.9227 219.968 37.7733 219.912 37.624C219.874 37.4747 219.856 37.4 219.856 37.4ZM221.228 37.4V57H219.408V37.4H221.228ZM219.492 54.956V57H217.252L217.28 56.72C217.317 56.72 217.373 56.72 217.448 56.72C217.541 56.72 217.597 56.72 217.616 56.72C218.101 56.72 218.521 56.552 218.876 56.216C219.23 55.8613 219.408 55.4413 219.408 54.956H219.492ZM219.492 39.444H219.408C219.408 38.9587 219.23 38.548 218.876 38.212C218.521 37.8573 218.101 37.68 217.616 37.68C217.597 37.68 217.541 37.68 217.448 37.68C217.373 37.68 217.317 37.68 217.28 37.68L217.252 37.4H219.492V39.444ZM237.36 37.4V57H235.54V37.4H237.36ZM244.92 56.132V57H237.276V56.132H244.92ZM243.716 46.92V47.76H237.276V46.92H243.716ZM244.92 37.4V38.268H237.276V37.4H244.92ZM246.628 52.464L245.004 57H240.356L241.364 56.132C242.354 56.132 243.156 55.9827 243.772 55.684C244.407 55.3667 244.92 54.928 245.312 54.368C245.704 53.808 246.05 53.1733 246.348 52.464H246.628ZM243.716 47.704V49.552H243.436V49.132C243.436 48.7587 243.306 48.4413 243.044 48.18C242.783 47.9 242.466 47.76 242.092 47.76V47.704H243.716ZM243.716 45.128V46.976H242.092V46.92C242.466 46.9013 242.783 46.7613 243.044 46.5C243.306 46.22 243.436 45.8933 243.436 45.52V45.128H243.716ZM244.92 38.184V40.424H244.64V39.92C244.64 39.472 244.482 39.0893 244.164 38.772C243.847 38.436 243.455 38.2587 242.988 38.24V38.184H244.92ZM244.92 36.896V37.708L241.504 37.4C241.915 37.4 242.344 37.372 242.792 37.316C243.259 37.26 243.688 37.1947 244.08 37.12C244.472 37.0453 244.752 36.9707 244.92 36.896ZM235.624 54.956V57H233.384V56.72C233.384 56.72 233.44 56.72 233.552 56.72C233.683 56.72 233.748 56.72 233.748 56.72C234.234 56.72 234.644 56.552 234.98 56.216C235.335 55.8613 235.522 55.4413 235.54 54.956H235.624ZM235.624 39.444H235.54C235.54 38.9587 235.363 38.548 235.008 38.212C234.654 37.8573 234.234 37.68 233.748 37.68C233.748 37.68 233.692 37.68 233.58 37.68C233.468 37.68 233.412 37.68 233.412 37.68L233.384 37.4H235.624V39.444ZM252.883 37.4H256.831C257.671 37.4 258.427 37.5213 259.099 37.764C259.79 38.0067 260.369 38.3613 260.835 38.828C261.302 39.276 261.657 39.8267 261.899 40.48C262.161 41.1147 262.291 41.8427 262.291 42.664C262.291 43.56 262.077 44.4187 261.647 45.24C261.237 46.0613 260.667 46.7333 259.939 47.256C259.23 47.76 258.427 48.012 257.531 48.012C257.849 48.1427 258.194 48.4133 258.567 48.824C258.941 49.216 259.267 49.5987 259.547 49.972C259.547 49.972 259.669 50.1587 259.911 50.532C260.173 50.8867 260.49 51.3253 260.863 51.848C261.255 52.3707 261.647 52.884 262.039 53.388C262.431 53.892 262.767 54.2933 263.047 54.592C263.421 55.0027 263.794 55.3667 264.167 55.684C264.541 56.0013 264.942 56.2533 265.371 56.44C265.819 56.6267 266.314 56.72 266.855 56.72V57H265.315C264.457 57 263.71 56.8693 263.075 56.608C262.459 56.3467 261.937 56.0293 261.507 55.656C261.078 55.264 260.714 54.8907 260.415 54.536C260.359 54.4613 260.201 54.2467 259.939 53.892C259.697 53.5373 259.398 53.1173 259.043 52.632C258.707 52.128 258.371 51.6333 258.035 51.148C257.699 50.6627 257.41 50.252 257.167 49.916C256.925 49.5613 256.785 49.356 256.747 49.3C256.393 48.8333 256.001 48.404 255.571 48.012C255.142 47.62 254.675 47.424 254.171 47.424V47.144C254.171 47.144 254.311 47.1533 254.591 47.172C254.89 47.172 255.245 47.1627 255.655 47.144C256.141 47.1253 256.673 47.0507 257.251 46.92C257.83 46.7893 258.371 46.5187 258.875 46.108C259.379 45.6973 259.762 45.072 260.023 44.232C260.079 44.0267 260.126 43.7747 260.163 43.476C260.201 43.1587 260.21 42.8507 260.191 42.552C260.173 41.2827 259.846 40.2747 259.211 39.528C258.595 38.7627 257.765 38.352 256.719 38.296C256.197 38.2587 255.655 38.2493 255.095 38.268C254.554 38.268 254.097 38.268 253.723 38.268C253.35 38.268 253.163 38.268 253.163 38.268C253.163 38.2493 253.135 38.1747 253.079 38.044C253.042 37.8947 252.995 37.7547 252.939 37.624C252.902 37.4747 252.883 37.4 252.883 37.4ZM253.247 37.4V57H251.427V37.4H253.247ZM251.511 54.956V57H249.271V56.72C249.271 56.72 249.327 56.72 249.439 56.72C249.57 56.72 249.635 56.72 249.635 56.72C250.121 56.72 250.531 56.552 250.867 56.216C251.222 55.8613 251.409 55.4413 251.427 54.956H251.511ZM251.511 39.444H251.427C251.409 38.9587 251.222 38.548 250.867 38.212C250.531 37.8573 250.121 37.68 249.635 37.68C249.635 37.68 249.57 37.68 249.439 37.68C249.327 37.68 249.271 37.68 249.271 37.68V37.4H251.511V39.444ZM253.163 54.956H253.247C253.247 55.4413 253.425 55.8613 253.779 56.216C254.134 56.552 254.554 56.72 255.039 56.72C255.039 56.72 255.095 56.72 255.207 56.72C255.319 56.72 255.375 56.72 255.375 56.72V57H253.163V54.956Z" fill="#C5A059"/>
<path d="M37.4891 25.1528C37.8517 26.8365 37.7313 30.7187 34.3487 32.7788C30.9661 34.8389 31.3469 37.5039 31.9602 38.5789C32.2251 39.9503 32.0652 43.1592 29.3063 45.0234" stroke="#C5A059"/>
<path d="M34.3241 40.2893C33.9489 38.6079 34.0401 34.7251 37.4073 32.646C40.7745 30.5669 40.3737 27.9042 39.7523 26.8328C39.4771 25.4629 39.613 22.2533 42.3579 20.3736" stroke="#C5A059"/>
<path d="M42.8213 25.6907C43.184 27.3743 43.0635 31.2566 39.6809 33.3167C36.2983 35.3767 36.6792 38.0417 37.2925 39.1167C37.5574 40.4881 37.3975 43.6971 34.6386 45.5612" stroke="#C5A059"/>
<path d="M32.5307 53.0121C32.4459 53.1211 32.34 53.2763 32.213 53.4779C32.086 53.6795 31.9663 53.8605 31.8538 54.0209C31.7413 54.1814 31.6398 54.3395 31.5494 54.4955C31.4092 54.7074 31.0912 54.8715 30.5953 54.9878C30.0995 55.104 29.6238 55.094 29.1682 54.9576C25.1723 53.4184 20.9565 51.1372 16.5208 48.1138L17.1517 47.1602C17.6013 47.2673 18.0315 47.2789 18.4423 47.1953C19.2199 47.0369 19.8277 46.6266 20.2658 45.9644C20.7039 45.3022 20.8438 44.5823 20.6854 43.8047C20.6017 43.3939 20.4227 43.0026 20.1483 42.6306L20.7792 41.677C25.2937 44.5621 29.0421 47.5497 32.0246 50.6399C32.3283 51.0059 32.5237 51.4398 32.6106 51.9416C32.6975 52.4434 32.6709 52.8002 32.5307 53.0121ZM17.2948 41.5616C16.5173 41.72 15.9095 42.1303 15.4714 42.7925C15.0333 43.4548 14.8934 44.1746 15.0518 44.9522C15.1354 45.363 15.3145 45.7543 15.5889 46.1263L14.9755 47.0534C11.858 44.8005 9.23388 42.5694 7.10312 40.3601C6.79938 39.9941 6.60405 39.5602 6.51712 39.0584C6.4302 38.5566 6.45683 38.1998 6.59702 37.9879L7.57836 36.5045C7.71856 36.2926 8.03656 36.1285 8.53239 36.0122C9.02821 35.896 9.50392 35.906 9.95953 36.0424C12.844 37.1509 15.9237 38.6933 19.1988 40.6696L18.5855 41.5967C18.1358 41.4897 17.7056 41.478 17.2948 41.5616Z" fill="#C5A059"/>
<path d="M290.687 38H272.313C271.513 38 270.902 38.6528 271.013 39.3854L273.31 52.9163C273.494 54.1119 274.602 55 275.91 55H287.106C288.411 55 289.522 54.1119 289.707 52.9163L291.987 39.3854C292.098 38.6528 291.487 38 290.687 38ZM289.153 40.4291L287.923 47.7165H275.086L273.847 40.4291H289.153Z" fill="#C5A059"/>
</svg>
